<mxfile host="app.diagrams.net" modified="2024-06-01T20:15:32.678Z" agent="Mozilla/5.0 (Windows NT 10.0; Win64; x64) AppleWebKit/537.36 (KHTML, like Gecko) Chrome/125.0.0.0 Safari/537.36" etag="ovbSfdckIAYDXbJY-MCK" version="24.2.5" type="github">
  <diagram name="Страница — 1" id="Noy3Ivq-mA7HNsqD0yKg">
    <mxGraphModel dx="2812" dy="815" grid="1" gridSize="10" guides="1" tooltips="1" connect="1" arrows="1" fold="1" page="1" pageScale="1" pageWidth="827" pageHeight="1169" math="0" shadow="0">
      <root>
        <mxCell id="0" />
        <mxCell id="1" parent="0" />
        <mxCell id="zXFXg-dLtq9J_VnJglHm-11" value="" style="rounded=0;whiteSpace=wrap;html=1;" vertex="1" parent="1">
          <mxGeometry x="450" y="115" width="156" height="210" as="geometry" />
        </mxCell>
        <mxCell id="zXFXg-dLtq9J_VnJglHm-1" value="" style="whiteSpace=wrap;html=1;aspect=fixed;" vertex="1" parent="1">
          <mxGeometry x="450" y="400" width="120" height="120" as="geometry" />
        </mxCell>
        <mxCell id="zXFXg-dLtq9J_VnJglHm-2" value="Клиент" style="rounded=0;whiteSpace=wrap;html=1;" vertex="1" parent="1">
          <mxGeometry x="450" y="490" width="80" height="30" as="geometry" />
        </mxCell>
        <mxCell id="zXFXg-dLtq9J_VnJglHm-3" value="id_клиента" style="rounded=0;whiteSpace=wrap;html=1;" vertex="1" parent="1">
          <mxGeometry x="450" y="400" width="120" height="30" as="geometry" />
        </mxCell>
        <mxCell id="zXFXg-dLtq9J_VnJglHm-4" value="Наименование" style="text;html=1;align=center;verticalAlign=middle;whiteSpace=wrap;rounded=0;" vertex="1" parent="1">
          <mxGeometry x="450" y="430" width="120" height="20" as="geometry" />
        </mxCell>
        <mxCell id="zXFXg-dLtq9J_VnJglHm-5" value="Адрес" style="text;html=1;align=center;verticalAlign=middle;whiteSpace=wrap;rounded=0;" vertex="1" parent="1">
          <mxGeometry x="450" y="450" width="120" height="20" as="geometry" />
        </mxCell>
        <mxCell id="zXFXg-dLtq9J_VnJglHm-7" value="Заказы" style="rounded=0;whiteSpace=wrap;html=1;" vertex="1" parent="1">
          <mxGeometry x="450" y="295" width="80" height="30" as="geometry" />
        </mxCell>
        <mxCell id="zXFXg-dLtq9J_VnJglHm-8" value="id_заказа" style="rounded=0;whiteSpace=wrap;html=1;" vertex="1" parent="1">
          <mxGeometry x="450" y="115" width="156" height="30" as="geometry" />
        </mxCell>
        <mxCell id="zXFXg-dLtq9J_VnJglHm-9" value="id товара (FK)" style="text;html=1;align=center;verticalAlign=middle;whiteSpace=wrap;rounded=0;" vertex="1" parent="1">
          <mxGeometry x="450" y="145" width="156" height="30" as="geometry" />
        </mxCell>
        <mxCell id="zXFXg-dLtq9J_VnJglHm-10" value="Кол-во" style="text;html=1;align=center;verticalAlign=middle;whiteSpace=wrap;rounded=0;" vertex="1" parent="1">
          <mxGeometry x="450" y="205" width="156" height="30" as="geometry" />
        </mxCell>
        <mxCell id="zXFXg-dLtq9J_VnJglHm-12" value="id клиента (FK)" style="text;html=1;align=center;verticalAlign=middle;whiteSpace=wrap;rounded=0;" vertex="1" parent="1">
          <mxGeometry x="450" y="175" width="156" height="30" as="geometry" />
        </mxCell>
        <mxCell id="zXFXg-dLtq9J_VnJglHm-18" value="" style="rounded=0;whiteSpace=wrap;html=1;" vertex="1" parent="1">
          <mxGeometry x="140" y="115" width="156" height="175" as="geometry" />
        </mxCell>
        <mxCell id="zXFXg-dLtq9J_VnJglHm-19" value="Номенклатура" style="rounded=0;whiteSpace=wrap;html=1;" vertex="1" parent="1">
          <mxGeometry x="140" y="260" width="100" height="30" as="geometry" />
        </mxCell>
        <mxCell id="zXFXg-dLtq9J_VnJglHm-20" value="id_товара" style="rounded=0;whiteSpace=wrap;html=1;" vertex="1" parent="1">
          <mxGeometry x="140" y="115" width="156" height="30" as="geometry" />
        </mxCell>
        <mxCell id="zXFXg-dLtq9J_VnJglHm-21" value="Наименование" style="text;html=1;align=center;verticalAlign=middle;whiteSpace=wrap;rounded=0;" vertex="1" parent="1">
          <mxGeometry x="140" y="145" width="156" height="30" as="geometry" />
        </mxCell>
        <mxCell id="zXFXg-dLtq9J_VnJglHm-22" value="Цена" style="text;html=1;align=center;verticalAlign=middle;whiteSpace=wrap;rounded=0;" vertex="1" parent="1">
          <mxGeometry x="140" y="205" width="156" height="30" as="geometry" />
        </mxCell>
        <mxCell id="zXFXg-dLtq9J_VnJglHm-23" value="Количество" style="text;html=1;align=center;verticalAlign=middle;whiteSpace=wrap;rounded=0;" vertex="1" parent="1">
          <mxGeometry x="140" y="175" width="156" height="30" as="geometry" />
        </mxCell>
        <mxCell id="zXFXg-dLtq9J_VnJglHm-24" value="" style="rounded=0;whiteSpace=wrap;html=1;" vertex="1" parent="1">
          <mxGeometry x="140" y="400" width="156" height="175" as="geometry" />
        </mxCell>
        <mxCell id="zXFXg-dLtq9J_VnJglHm-25" value="Дерево категорий" style="rounded=0;whiteSpace=wrap;html=1;" vertex="1" parent="1">
          <mxGeometry x="140" y="545" width="100" height="30" as="geometry" />
        </mxCell>
        <mxCell id="zXFXg-dLtq9J_VnJglHm-26" value="id_категории" style="rounded=0;whiteSpace=wrap;html=1;" vertex="1" parent="1">
          <mxGeometry x="140" y="400" width="156" height="30" as="geometry" />
        </mxCell>
        <mxCell id="zXFXg-dLtq9J_VnJglHm-27" value="id_родителя (FK)" style="text;html=1;align=center;verticalAlign=middle;whiteSpace=wrap;rounded=0;" vertex="1" parent="1">
          <mxGeometry x="140" y="430" width="156" height="30" as="geometry" />
        </mxCell>
        <mxCell id="zXFXg-dLtq9J_VnJglHm-29" value="Наименование" style="text;html=1;align=center;verticalAlign=middle;whiteSpace=wrap;rounded=0;" vertex="1" parent="1">
          <mxGeometry x="140" y="460" width="156" height="30" as="geometry" />
        </mxCell>
        <mxCell id="zXFXg-dLtq9J_VnJglHm-38" value="" style="endArrow=oval;html=1;endFill=1;startArrow=oval;startFill=1;edgeStyle=elbowEdgeStyle;elbow=vertical;rounded=0;exitX=0;exitY=0.5;exitDx=0;exitDy=0;entryX=0;entryY=0.5;entryDx=0;entryDy=0;" edge="1" parent="1" source="zXFXg-dLtq9J_VnJglHm-26" target="zXFXg-dLtq9J_VnJglHm-20">
          <mxGeometry width="100" height="75" relative="1" as="geometry">
            <mxPoint x="120" y="420" as="sourcePoint" />
            <mxPoint x="50" y="240" as="targetPoint" />
            <Array as="points">
              <mxPoint x="60" y="280" />
            </Array>
          </mxGeometry>
        </mxCell>
        <mxCell id="zXFXg-dLtq9J_VnJglHm-41" value="Характеризуют друг друга" style="text;html=1;align=center;verticalAlign=middle;whiteSpace=wrap;rounded=0;fontStyle=1" vertex="1" parent="1">
          <mxGeometry x="-20" y="260" width="60" height="30" as="geometry" />
        </mxCell>
        <mxCell id="zXFXg-dLtq9J_VnJglHm-43" value="" style="endArrow=none;html=1;rounded=0;align=center;verticalAlign=top;endFill=0;labelBackgroundColor=none;endSize=6;startArrow=oval;startFill=1;exitX=1;exitY=0.5;exitDx=0;exitDy=0;entryX=0;entryY=0.5;entryDx=0;entryDy=0;" edge="1" parent="1" source="zXFXg-dLtq9J_VnJglHm-20" target="zXFXg-dLtq9J_VnJglHm-7">
          <mxGeometry relative="1" as="geometry">
            <mxPoint x="410" y="440" as="sourcePoint" />
            <mxPoint x="570" y="440" as="targetPoint" />
          </mxGeometry>
        </mxCell>
        <mxCell id="zXFXg-dLtq9J_VnJglHm-44" value="Состоит в" style="text;html=1;align=center;verticalAlign=middle;resizable=0;points=[];autosize=1;strokeColor=none;fillColor=none;fontStyle=1" vertex="1" parent="1">
          <mxGeometry x="340" y="165" width="80" height="30" as="geometry" />
        </mxCell>
        <mxCell id="zXFXg-dLtq9J_VnJglHm-46" value="" style="endArrow=none;html=1;rounded=0;align=center;verticalAlign=top;endFill=0;labelBackgroundColor=none;endSize=6;startArrow=oval;startFill=1;exitX=0.5;exitY=0;exitDx=0;exitDy=0;entryX=0.75;entryY=1;entryDx=0;entryDy=0;" edge="1" parent="1" source="zXFXg-dLtq9J_VnJglHm-3" target="zXFXg-dLtq9J_VnJglHm-7">
          <mxGeometry relative="1" as="geometry">
            <mxPoint x="570" y="360" as="sourcePoint" />
            <mxPoint x="730" y="360" as="targetPoint" />
          </mxGeometry>
        </mxCell>
        <mxCell id="zXFXg-dLtq9J_VnJglHm-47" value="Инициализирует" style="text;html=1;align=center;verticalAlign=middle;resizable=0;points=[];autosize=1;strokeColor=none;fillColor=none;fontStyle=1" vertex="1" parent="1">
          <mxGeometry x="510" y="348" width="120" height="30" as="geometry" />
        </mxCell>
      </root>
    </mxGraphModel>
  </diagram>
</mxfile>
